<?xml version="1.0" encoding="UTF-8"?>
<svg id="Layer_1" data-name="Layer 1" xmlns="http://www.w3.org/2000/svg" viewBox="0 0 112.19 178.41">
  <defs>
    <style>
      .cls-1 {
        fill: #fff;
      }
    </style>
  </defs>
  <path class="cls-1" d="M12.29,80.48h75.57c7.17,0,13,5.82,13,13v13.67H12.29v-26.67h0Z"/>
  <path class="cls-1" d="M7.09,178.34l-1.44-.25c-2.85-.49-4.77-3.2-4.28-6.05l8.69-50.81,12.1.05-9.03,52.78c-.49,2.85-3.2,4.77-6.05,4.28Z"/>
  <path class="cls-1" d="M106.39,178.34l1.44-.25c2.85-.49,4.77-3.2,4.28-6.05l-8.69-50.81-12.1.05,9.03,52.78c.49,2.85,3.2,4.77,6.05,4.28Z"/>
  <path class="cls-1" d="M4.32.08h0c2.85-.51,5.57,1.39,6.08,4.24l14.13,76.15h-12.24L.08,6.16C-.42,3.31,1.47.59,4.32.08Z"/>
</svg>